<svg viewBox="0 0 400 75" fill="none" xmlns="http://www.w3.org/2000/svg">
    <style>
        #homestead { fill: #2e2e2e } @media (prefers-color-scheme:dark) { #homestead { fill: #fff } }
    </style>
    <path fill-rule="evenodd" clip-rule="evenodd" d="M58.5 38.6001L52.5 32.6001V44.6001L58.5 50.6001V54.6001L52.5 48.6001V60.6001L58.5 66.6001V74.6001H62.5V26.6001L59.5 23.6001L52.5 16.6001V28.6001L58.5 34.6001V38.6001ZM6.5 38.6001L0.5 32.6001V44.6001L6.5 50.6001V54.6001L0.5 48.6001V60.6001L6.5 66.6001V74.6001H10.5V26.6001L7.5 23.6001L0.5 16.6001V28.6001L6.5 34.6001V38.6001ZM32.5 38.6001L26.5 32.6001V44.6001L32.5 50.6001V54.6001L26.5 48.6001V60.6001L32.5 66.6001V74.6001H36.5V10.6001L33.5 7.6001L26.5 0.600098V12.6001L32.5 18.6001V22.6001L26.5 16.6001V28.6001L32.5 34.6001V38.6001ZM38.5 40.6001L46.5 32.6001V44.6001L38.5 52.6001V40.6001ZM38.5 56.6001L46.5 48.6001V60.6001L38.5 68.6001V56.6001ZM38.5 24.6001L46.5 16.6001V28.6001L38.5 36.6001V24.6001ZM38.5 8.6001L46.5 0.600098V12.6001L38.5 20.6001V8.6001ZM12.5 40.6001L20.5 32.6001V44.6001L12.5 52.6001V40.6001ZM12.5 56.6001L20.5 48.6001V60.6001L12.5 68.6001V56.6001ZM12.5 24.6001L20.5 16.6001V28.6001L12.5 36.6001V24.6001ZM64.5 40.6001L72.5 32.6001V44.6001L64.5 52.6001V40.6001ZM64.5 56.6001L72.5 48.6001V60.6001L64.5 68.6001V56.6001ZM64.5 24.6001L72.5 16.6001V28.6001L64.5 36.6001V24.6001Z" fill="url(#gradient)"/>
    <path id="homestead" fill-rule="evenodd" clip-rule="evenodd" d="M240.9 52.6001H238.7V40.4001H224.1V52.7001H221.9V27.0001H224.1V38.5001H238.7V27.0001H240.9V52.6001ZM245.7 42.8001C245.7 41.0001 246.1 39.3001 246.8 37.9001C247.5 36.4001 248.5 35.3001 249.8 34.5001C251.1 33.7001 252.6 33.3001 254.2 33.3001C256.7 33.3001 258.8 34.2001 260.4 36.0001C262 37.8001 262.8 40.1001 262.8 43.1001V43.5001C262.8 45.3001 262.4 47.0001 261.7 48.5001C261 50.0001 260 51.1001 258.7 51.9001C257.4 52.7001 255.9 53.1001 254.3 53.1001C251.8 53.1001 249.7 52.2001 248.2 50.4001C246.6 48.6001 245.8 46.3001 245.8 43.3001L245.7 42.8001ZM247.8 43.4001C247.8 45.7001 248.4 47.5001 249.6 49.0001C250.8 50.5001 252.3 51.2001 254.2 51.2001C256.1 51.2001 257.6 50.5001 258.8 49.0001C260 47.5001 260.6 45.6001 260.6 43.2001V42.8001C260.6 41.3001 260.3 40.0001 259.8 38.8001C259.3 37.6001 258.5 36.7001 257.5 36.0001C256.5 35.3001 255.4 35.0001 254.2 35.0001C252.3 35.0001 250.8 35.7001 249.6 37.2001C248.4 38.7001 247.8 40.6001 247.8 43.0001V43.4001ZM268.9 33.6001L269 36.7001C269.7 35.6001 270.6 34.7001 271.6 34.1001C272.7 33.5001 273.8 33.2001 275.1 33.2001C278.1 33.2001 280 34.4001 280.8 36.9001C281.5 35.7001 282.4 34.8001 283.5 34.2001C284.6 33.6001 285.9 33.2001 287.3 33.2001C291.4 33.2001 293.5 35.4001 293.5 39.9001V52.6001H291.4V40.1001C291.4 38.4001 291 37.1001 290.3 36.3001C289.6 35.5001 288.4 35.1001 286.8 35.1001C285.3 35.1001 284 35.6001 283 36.6001C282 37.6001 281.4 38.7001 281.3 40.1001V52.7001H279.2V39.9001C279.2 38.3001 278.8 37.1001 278.1 36.2001C277.3 35.4001 276.2 35.0001 274.6 35.0001C273.3 35.0001 272.1 35.4001 271.2 36.1001C270.2 36.9001 269.5 38.0001 269.1 39.5001V52.5001H267V33.5001H268.9V33.6001ZM306.3 53.0001C304.7 53.0001 303.2 52.6001 301.9 51.8001C300.6 51.0001 299.6 49.9001 298.9 48.5001C298.2 47.1001 297.8 45.5001 297.8 43.7001V42.9001C297.8 41.1001 298.2 39.4001 298.9 38.0001C299.6 36.5001 300.6 35.4001 301.9 34.5001C303.2 33.7001 304.5 33.2001 306 33.2001C308.3 33.2001 310.1 34.0001 311.5 35.6001C312.9 37.2001 313.5 39.3001 313.5 42.1001V43.3001H299.9V43.7001C299.9 45.9001 300.5 47.7001 301.8 49.1001C303 50.5001 304.6 51.3001 306.5 51.3001C307.6 51.3001 308.6 51.1001 309.5 50.7001C310.4 50.3001 311.1 49.6001 311.8 48.7001L313.1 49.7001C311.5 51.9001 309.2 53.0001 306.3 53.0001ZM305.9 35.0001C304.3 35.0001 303 35.6001 301.9 36.7001C300.8 37.9001 300.2 39.4001 299.9 41.4001H311.3V41.2001C311.2 39.4001 310.7 37.9001 309.7 36.7001C308.8 35.6001 307.5 35.0001 305.9 35.0001ZM328.9 47.8001C328.9 46.8001 328.5 45.9001 327.6 45.3001C326.8 44.7001 325.5 44.2001 323.8 43.8001C322.1 43.4001 320.8 43.0001 319.9 42.6001C319 42.1001 318.3 41.6001 317.8 40.9001C317.3 40.2001 317.1 39.4001 317.1 38.5001C317.1 37.0001 317.7 35.8001 319 34.8001C320.3 33.8001 321.9 33.3001 323.8 33.3001C325.9 33.3001 327.6 33.8001 328.9 34.9001C330.2 35.9001 330.8 37.3001 330.8 39.0001H328.7C328.7 37.9001 328.2 37.0001 327.3 36.2001C326.4 35.5001 325.2 35.1001 323.8 35.1001C322.4 35.1001 321.3 35.4001 320.5 36.0001C319.7 36.6001 319.2 37.4001 319.2 38.4001C319.2 39.3001 319.6 40.1001 320.2 40.6001C320.9 41.1001 322.2 41.6001 324 42.0001C325.8 42.4001 327.2 42.9001 328.1 43.4001C329 43.9001 329.7 44.5001 330.1 45.2001C330.5 45.9001 330.8 46.7001 330.8 47.7001C330.8 49.3001 330.2 50.6001 328.9 51.5001C327.6 52.4001 325.9 52.9001 323.8 52.9001C321.6 52.9001 319.8 52.4001 318.4 51.3001C317 50.2001 316.3 48.9001 316.3 47.2001H318.4C318.5 48.4001 319 49.4001 320 50.1001C321 50.8001 322.2 51.1001 323.8 51.1001C325.3 51.1001 326.4 50.8001 327.4 50.1001C328.5 49.6001 328.9 48.8001 328.9 47.8001ZM339 28.7001V33.6001H342.9V35.3001H339V48.0001C339 49.1001 339.2 49.8001 339.6 50.4001C340 50.9001 340.6 51.2001 341.5 51.2001C341.9 51.2001 342.4 51.1001 343.2 51.0001L343.3 52.7001C342.8 52.9001 342 53.0001 341.1 53.0001C339.7 53.0001 338.6 52.6001 338 51.7001C337.3 50.9001 337 49.6001 337 48.0001V35.3001H333.5V33.6001H337V28.7001H339ZM354.7 53.0001C353.1 53.0001 351.6 52.6001 350.3 51.8001C349 51.0001 348 49.9001 347.3 48.5001C346.6 47.1001 346.2 45.5001 346.2 43.7001V42.9001C346.2 41.1001 346.6 39.4001 347.3 38.0001C348 36.5001 349 35.4001 350.3 34.5001C351.6 33.7001 352.9 33.2001 354.4 33.2001C356.7 33.2001 358.5 34.0001 359.9 35.6001C361.3 37.2001 361.9 39.3001 361.9 42.1001V43.3001H348.3V43.7001C348.3 45.9001 348.9 47.7001 350.2 49.1001C351.4 50.5001 353 51.3001 354.9 51.3001C356 51.3001 357 51.1001 357.9 50.7001C358.8 50.3001 359.5 49.6001 360.2 48.7001L361.5 49.7001C359.9 51.9001 357.6 53.0001 354.7 53.0001ZM354.3 35.0001C352.7 35.0001 351.4 35.6001 350.3 36.7001C349.2 37.8001 348.6 39.4001 348.3 41.4001H359.7V41.2001C359.6 39.4001 359.1 37.9001 358.1 36.7001C357.2 35.6001 355.9 35.0001 354.3 35.0001ZM377.9 52.6001C377.7 52.0001 377.6 51.1001 377.5 49.9001C376.8 50.9001 375.8 51.6001 374.7 52.1001C373.6 52.6001 372.3 52.9001 371.1 52.9001C369.3 52.9001 367.8 52.4001 366.7 51.4001C365.6 50.4001 365 49.1001 365 47.5001C365 45.7001 365.8 44.2001 367.3 43.1001C368.8 42.0001 371 41.5001 373.7 41.5001H377.5V39.3001C377.5 37.9001 377.1 36.9001 376.2 36.1001C375.4 35.3001 374.1 34.9001 372.5 34.9001C371 34.9001 369.8 35.3001 368.9 36.0001C367.9 36.8001 367.5 37.7001 367.5 38.7001H365.4C365.4 37.2001 366.1 35.9001 367.5 34.8001C368.9 33.7001 370.6 33.1001 372.7 33.1001C374.8 33.1001 376.5 33.6001 377.7 34.7001C378.9 35.8001 379.6 37.2001 379.6 39.1001V48.1001C379.6 49.9001 379.8 51.3001 380.2 52.2001V52.4001H377.9V52.6001ZM371.3 51.1001C372.7 51.1001 374 50.8001 375.1 50.1001C376.2 49.4001 377 48.5001 377.5 47.4001V43.2001H373.7C371.6 43.2001 370 43.6001 368.8 44.4001C367.6 45.1001 367 46.2001 367 47.5001C367 48.6001 367.4 49.5001 368.2 50.2001C369 50.8001 370.1 51.1001 371.3 51.1001ZM384.4 42.9001C384.4 39.9001 385.1 37.6001 386.4 35.8001C387.7 34.0001 389.5 33.2001 391.8 33.2001C394.4 33.2001 396.3 34.2001 397.7 36.2001V25.6001H399.8V52.6001H397.8L397.7 50.1001C396.4 52.0001 394.4 53.0001 391.8 53.0001C389.6 53.0001 387.8 52.1001 386.5 50.4001C385.2 48.6001 384.5 46.3001 384.5 43.3001L384.4 42.9001ZM386.5 43.3001C386.5 45.7001 387 47.6001 388 49.0001C389 50.4001 390.3 51.1001 392.1 51.1001C394.7 51.1001 396.5 50.0001 397.6 47.7001V38.8001C396.5 36.3001 394.7 35.1001 392.1 35.1001C390.3 35.1001 389 35.8001 388 37.2001C387 38.6001 386.5 40.6001 386.5 43.3001Z"/>
    <path id="homestead" fill-rule="evenodd" clip-rule="evenodd" d="M100.1 48.4001H111.3V52.6001H94.8V27.0001H100.1V48.4001ZM129.3 48.2001V40.0001C129.3 37.9001 128.6 36.2001 127.2 35.0001C125.8 33.8001 124 33.2001 121.6 33.2001C120.1 33.2001 118.7 33.5001 117.4 34.0001C116.2 34.5001 115.2 35.3001 114.5 36.2001C113.8 37.1001 113.5 38.2001 113.5 39.3001H118.6C118.6 38.6001 118.8 38.0001 119.3 37.6001C119.8 37.2001 120.5 37.0001 121.3 37.0001C122.3 37.0001 123 37.3001 123.4 37.8001C123.9 38.3001 124.1 39.0001 124.1 39.9001V41.0001H121.8C119 41.0001 116.8 41.6001 115.3 42.6001C113.8 43.7001 113.1 45.2001 113.1 47.2001C113.1 48.8001 113.7 50.2001 114.9 51.3001C116.1 52.4001 117.7 52.9001 119.5 52.9001C121.5 52.9001 123.1 52.2001 124.3 50.8001C124.4 51.5001 124.6 52.0001 124.8 52.5001H129.9V52.2001C129.6 51.4001 129.4 50.0001 129.3 48.2001ZM124.2 47.2001C123.9 47.8001 123.4 48.2001 122.8 48.5001C122.2 48.8001 121.5 49.0001 120.7 49.0001C119.9 49.0001 119.3 48.8001 118.9 48.4001C118.5 48.0001 118.2 47.5001 118.2 46.8001V46.5001C118.4 44.7001 119.7 43.9001 122.3 43.9001H124.2V47.2001ZM143.9 38.4001C143.2 38.3001 142.6 38.3001 142.1 38.3001C140.2 38.3001 138.9 39.0001 138.3 40.3001V52.7001H133.2V33.7001H138L138.1 36.0001C139.1 34.3001 140.5 33.4001 142.3 33.4001C142.9 33.4001 143.4 33.5001 143.9 33.6001C144 33.5001 143.9 38.4001 143.9 38.4001ZM161.2 48.2001V40.0001C161.2 37.9001 160.5 36.2001 159.1 35.0001C157.7 33.8001 155.9 33.2001 153.5 33.2001C152 33.2001 150.6 33.5001 149.3 34.0001C148.1 34.5001 147.1 35.3001 146.4 36.2001C145.7 37.1001 145.4 38.2001 145.4 39.3001H150.5C150.5 38.6001 150.7 38.0001 151.2 37.6001C151.7 37.2001 152.4 37.0001 153.2 37.0001C154.2 37.0001 154.9 37.3001 155.3 37.8001C155.8 38.3001 156 39.0001 156 39.9001V41.0001H153.7C150.9 41.0001 148.7 41.6001 147.2 42.6001C145.7 43.7001 145 45.2001 145 47.2001C145 48.8001 145.6 50.2001 146.8 51.3001C148 52.4001 149.6 52.9001 151.4 52.9001C153.4 52.9001 155 52.2001 156.2 50.8001C156.3 51.5001 156.5 52.0001 156.7 52.5001H161.8V52.2001C161.5 51.4001 161.3 50.0001 161.2 48.2001ZM156.2 47.2001C155.9 47.8001 155.4 48.2001 154.8 48.5001C154.2 48.8001 153.5 49.0001 152.7 49.0001C151.9 49.0001 151.3 48.8001 150.9 48.4001C150.5 48.0001 150.2 47.5001 150.2 46.8001V46.5001C150.4 44.7001 151.7 43.9001 154.3 43.9001H156.2V47.2001ZM172 46.4001L175.5 33.6001H180.8L174.4 52.6001H169.6L163.2 33.6001H168.5L172 46.4001ZM199.4 42.7001C199.4 39.7001 198.7 37.4001 197.2 35.7001C195.7 34.0001 193.7 33.2001 191.1 33.2001C189.4 33.2001 187.8 33.6001 186.5 34.4001C185.1 35.2001 184.1 36.4001 183.4 37.9001C182.7 39.4001 182.3 41.1001 182.3 43.0001V43.5001C182.3 46.3001 183.2 48.6001 184.9 50.3001C186.7 52.0001 188.9 52.9001 191.7 52.9001C193.3 52.9001 194.7 52.6001 196 52.0001C197.3 51.4001 198.3 50.6001 199.1 49.5001L196.6 46.7001C195.5 48.1001 194 48.8001 192 48.8001C190.7 48.8001 189.7 48.4001 188.9 47.7001C188.1 46.9001 187.6 46.0001 187.4 44.7001H199.5V42.7001H199.4ZM194.4 41.3001H187.3C187.5 40.0001 187.9 39.1001 188.5 38.4001C189.1 37.7001 189.9 37.4001 191 37.4001C192.1 37.4001 192.9 37.7001 193.5 38.3001C194.1 38.9001 194.4 39.8001 194.4 40.9001V41.3001ZM202.6 25.6001H207.7V52.6001H202.6V25.6001Z"/>
    <defs>
        <linearGradient id="gradient" x1="36.524" y1="0.646098" x2="36.524" y2="74.6461" gradientUnits="userSpaceOnUse">
            <stop stop-color="#FED757"/>
            <stop offset="1" stop-color="#E37413"/>
        </linearGradient>
    </defs>
</svg>
